<svg id="レイヤー_1" data-name="レイヤー 1" xmlns="http://www.w3.org/2000/svg" viewBox="0 0 761.19 271.99"><title>recapture</title><path fill="#1d1d1d" stroke="#ffffff" d="M322.77,477.66a4.09,4.09,0,0,1,2.84,1.13,3.79,3.79,0,0,1,1.24,2.95,3.85,3.85,0,0,1-2,3.55q-.33.21-2.85,2a27.34,27.34,0,0,0-5.53,5.91,51.83,51.83,0,0,0-5.8,10.79,54.23,54.23,0,0,0-3.55,16.6c-.14,1.15-.23,2.29-.26,3.44s-.1,2.29-.17,3.43c1.29-.14,2.64-.26,4-.37s2.88-.16,4.46-.16a63.82,63.82,0,0,1,14.93,1.72,54.66,54.66,0,0,1,13.22,4.94q15.57-6.24,23.84-16.55a35.78,35.78,0,0,0,8.27-23,30.45,30.45,0,0,0-4.72-16.82,39,39,0,0,0-13.27-12.4A70.37,70.37,0,0,0,337,457.14,118.13,118.13,0,0,0,311,454.46a172.75,172.75,0,0,0-25.19,1.88A159.23,159.23,0,0,0,261,462a132.37,132.37,0,0,0-22.51,9.34,87.18,87.18,0,0,0-18.37,12.84,56.9,56.9,0,0,0-12.35,16.17,42.17,42.17,0,0,0-4.51,19.33,32.28,32.28,0,0,0,2.68,13.59A28.72,28.72,0,0,0,213,543a30.14,30.14,0,0,0,10.25,5.9,37.1,37.1,0,0,0,12.14,2,52.18,52.18,0,0,0,13.22-1.5,60.2,60.2,0,0,0,9.56-3.28,29.7,29.7,0,0,0,5.85-3.33c1.33-1,2.06-1.63,2.2-1.77L268,539.8a3.48,3.48,0,0,1,2-.69,3.92,3.92,0,0,1,2.8,1.12,3.82,3.82,0,0,1,1.18,2.85,3.6,3.6,0,0,1-1.18,2.79c-.15.15-1.06.92-2.74,2.31a38.52,38.52,0,0,1-7.25,4.46,66.69,66.69,0,0,1-11.55,4.3,57.43,57.43,0,0,1-15.63,1.93,44.9,44.9,0,0,1-15.52-2.68,38.94,38.94,0,0,1-12.95-7.74,36.61,36.61,0,0,1-8.86-12.3A39.53,39.53,0,0,1,195,519.66a47.7,47.7,0,0,1,4.19-19.6,63.81,63.81,0,0,1,11.82-17.57,89.35,89.35,0,0,1,18.26-14.77,128.56,128.56,0,0,1,23.47-11.33,158.27,158.27,0,0,1,27.56-7.3,175.72,175.72,0,0,1,30.4-2.58,127.6,127.6,0,0,1,29.38,3.17,77.73,77.73,0,0,1,23,9.13,45.21,45.21,0,0,1,15,14.61,36.38,36.38,0,0,1,5.37,19.6,44.66,44.66,0,0,1-8.33,26.32Q366.92,531.16,350.8,539a37.84,37.84,0,0,1,9.3,11.76,64.23,64.23,0,0,1,5,13.59,83.82,83.82,0,0,1,2.14,13.11q.49,6.22.7,10.42a51.42,51.42,0,0,0,1.13,9.93,15.66,15.66,0,0,0,2.58,6,8.48,8.48,0,0,0,4.08,3,18.83,18.83,0,0,0,5.85.8,17.79,17.79,0,0,0,8.92-2.31,31.83,31.83,0,0,0,7.36-5.74,46.69,46.69,0,0,0,5.8-7.47,83.08,83.08,0,0,0,4.24-7.52c1.15-2.32,2-4.26,2.63-5.8s.92-2.34.92-2.42a4,4,0,0,1,6.71-1.45,4.13,4.13,0,0,1,1.13,2.85,5.8,5.8,0,0,1-.22,1.4c-.07.28-.48,1.38-1.23,3.27a70.07,70.07,0,0,1-3.28,6.88,86.06,86.06,0,0,1-5.37,8.65,53.25,53.25,0,0,1-7.46,8.54,39.14,39.14,0,0,1-9.56,6.49,26.62,26.62,0,0,1-11.77,2.58,22,22,0,0,1-9.5-1.82,15.65,15.65,0,0,1-6.23-5.32,23.92,23.92,0,0,1-3.55-8.49,61.46,61.46,0,0,1-1.34-11.44q-.1-2.68-.32-6.39t-.81-7.84c-.39-2.76-.95-5.6-1.66-8.54a47.47,47.47,0,0,0-3-8.6,41,41,0,0,0-4.84-7.94,29.51,29.51,0,0,0-7.09-6.56A114.25,114.25,0,0,1,325,546.89a112.71,112.71,0,0,1-18.32,1.67v3.22A110.93,110.93,0,0,1,304,576.54a57.16,57.16,0,0,1-8.54,20.09,41.87,41.87,0,0,1-15.25,13.43Q270.89,615,257.46,615a49.81,49.81,0,0,1-13.16-1.78,55,55,0,0,1-12.14-4.88,48.78,48.78,0,0,1-10.1-7.36,35.17,35.17,0,0,1-7-9.19,3.52,3.52,0,0,1-.53-1.93,4,4,0,0,1,1.12-2.74,4.11,4.11,0,0,1,6.5.81,32.75,32.75,0,0,0,6.13,7.73,39.52,39.52,0,0,0,8.43,6.07,44.85,44.85,0,0,0,10,3.92,42.34,42.34,0,0,0,10.8,1.4q11.06,0,18.9-3.92a33.15,33.15,0,0,0,12.78-11.18,49.51,49.51,0,0,0,7.2-17.4,104.63,104.63,0,0,0,2.26-22.72v-4.19a14.25,14.25,0,0,1-5.7-3.33,7.14,7.14,0,0,1-2.14-5.26,8.14,8.14,0,0,1,2-5.48,14.82,14.82,0,0,1,5.8-3.87c0-1.64,0-3.27.11-4.89s.17-3.2.32-4.78a71.42,71.42,0,0,1,2.41-13.85,58.52,58.52,0,0,1,4.19-10.75,49.72,49.72,0,0,1,5-7.84,49.06,49.06,0,0,1,4.83-5.31,29.9,29.9,0,0,1,3.76-3.07c1-.64,1.58-1,1.72-1.07A3.59,3.59,0,0,1,322.77,477.66Zm10.1,59.94c-1.22-.36-2.41-.71-3.55-1.07a34.69,34.69,0,0,0-3.71-.92c-1.32-.25-2.79-.46-4.4-.64a50.38,50.38,0,0,0-5.53-.27,52.54,52.54,0,0,0-9.13.65v5.26a125.39,125.39,0,0,0,13.48-.75A91.37,91.37,0,0,0,332.87,537.6Z" transform="translate(-195.04 -446.51)"/><path fill="#1d1d1d" stroke="#ffffff" d="M424,597.44a16.72,16.72,0,0,0,5.8,5,20.15,20.15,0,0,0,18.26-.64,31.78,31.78,0,0,0,7.84-6.61,52.29,52.29,0,0,0,6.34-9.13Q465,581,467.25,576a3.88,3.88,0,0,1,1.5-1.77,4.09,4.09,0,0,1,2.15-.59,3.76,3.76,0,0,1,3,1.29,4.16,4.16,0,0,1,1.12,2.79,3.42,3.42,0,0,1-.1.91,5.12,5.12,0,0,1-.33.81q-7.41,16.33-16.16,24.6t-19.82,8.48a25,25,0,0,1-20.73-9.82,30,30,0,0,1-4.95-9.83,38.89,38.89,0,0,1-1.61-11,35.91,35.91,0,0,1,1.35-10.1,25.38,25.38,0,0,1,3.86-8,18.53,18.53,0,0,1,6-5.38,15.56,15.56,0,0,1,7.68-1.93,12.47,12.47,0,0,1,4.89,1,14.1,14.1,0,0,1,4.35,2.9,14.44,14.44,0,0,1,3.11,4.57,15,15,0,0,1,1.18,6.12,22.66,22.66,0,0,1-1.5,8.27,27.58,27.58,0,0,1-4.14,7.2,35.12,35.12,0,0,1-6.28,6.12A46.16,46.16,0,0,1,424,597.44Zm-3.22-7a26.31,26.31,0,0,0,6.07-3.54,25.45,25.45,0,0,0,4.67-4.73,22,22,0,0,0,3-5.42,16.34,16.34,0,0,0,1.07-5.75,6.78,6.78,0,0,0-1.61-4.89,5.07,5.07,0,0,0-3.76-1.66,7.7,7.7,0,0,0-4.94,1.61,12.14,12.14,0,0,0-3.33,4.19A21.5,21.5,0,0,0,420,576a33.79,33.79,0,0,0-.59,6.29,23.7,23.7,0,0,0,.37,4.08C420.07,587.8,420.38,589.16,420.74,590.45Z" transform="translate(-195.04 -446.51)"/><path fill="#1d1d1d" stroke="#ffffff" d="M537.5,579.5q-.64,1.18-2.2,4.29a64.05,64.05,0,0,1-4.19,7,82,82,0,0,1-6.28,8.11,52.74,52.74,0,0,1-8.38,7.68,45,45,0,0,1-10.58,5.75,35.23,35.23,0,0,1-12.73,2.25,25.39,25.39,0,0,1-10.85-2.2,22.84,22.84,0,0,1-8.06-6.23,27.85,27.85,0,0,1-5.05-9.51,40.56,40.56,0,0,1-1.72-12.14,38.93,38.93,0,0,1,1.83-12.08,32.85,32.85,0,0,1,5-9.83,24.83,24.83,0,0,1,7.35-6.61,17.6,17.6,0,0,1,8.92-2.41,16.41,16.41,0,0,1,6.45,1.23,14.91,14.91,0,0,1,4.88,3.28,15.73,15.73,0,0,1,3.12,4.51,11.87,11.87,0,0,1,1.13,4.94,15.86,15.86,0,0,1-2.1,8,8.76,8.76,0,0,1-2.09,2.47,3.92,3.92,0,0,1-5.32-.27,4.06,4.06,0,0,1-1.13-2.9,2.94,2.94,0,0,1,.38-1.51c.25-.43.54-.87.86-1.34a8.1,8.1,0,0,0,.86-1.72,7.77,7.77,0,0,0,.37-2.63,5.37,5.37,0,0,0-2.09-4.08,7.8,7.8,0,0,0-5.32-1.83,10.19,10.19,0,0,0-5.75,1.83,17.3,17.3,0,0,0-4.78,4.89,26.58,26.58,0,0,0-3.27,7.19,30.26,30.26,0,0,0-1.24,8.76,31.81,31.81,0,0,0,1.08,8.38,21.88,21.88,0,0,0,3.22,7,16.19,16.19,0,0,0,5.42,4.89,15.74,15.74,0,0,0,7.79,1.83,27.14,27.14,0,0,0,10.74-2.1,39,39,0,0,0,9-5.32,45.65,45.65,0,0,0,7.19-7,82.26,82.26,0,0,0,5.32-7.2,57,57,0,0,0,3.44-5.91c.82-1.68,1.3-2.74,1.45-3.17a3.26,3.26,0,0,1,1.45-1.66,4.34,4.34,0,0,1,2.2-.59,3.76,3.76,0,0,1,3,1.29,4.28,4.28,0,0,1,1.12,2.9A4.9,4.9,0,0,1,537.5,579.5Z" transform="translate(-195.04 -446.51)"/><path fill="#1d1d1d" stroke="#ffffff" d="M613.24,579.28l-1.78,3.6c-.89,1.83-2,3.92-3.43,6.28s-3,4.84-4.89,7.42a49.58,49.58,0,0,1-6.23,7.09A34.2,34.2,0,0,1,589.5,609a17.71,17.71,0,0,1-8.38,2.1,14.75,14.75,0,0,1-10.48-4,23,23,0,0,1-6.17-10,31.48,31.48,0,0,1-8.7,9.72,16.92,16.92,0,0,1-17.3,2.15A15.39,15.39,0,0,1,533,604.9a18.88,18.88,0,0,1-3.49-6.18,23.42,23.42,0,0,1-1.23-7.73,35.94,35.94,0,0,1,2.84-14.77,34.33,34.33,0,0,1,7.25-10.69,30,30,0,0,1,9.72-6.44,27.23,27.23,0,0,1,10.26-2.15,19.66,19.66,0,0,1,6.13.91,29.21,29.21,0,0,1,4.78,2,18.06,18.06,0,0,1,3.06,2c.71.6,1.11.95,1.18,1a4.42,4.42,0,0,1,1.18,2.9,4,4,0,0,1-1.18,2.84,3.72,3.72,0,0,1-2.79,1.24,3.91,3.91,0,0,1-2.9-1.18c-.15-.15-.47-.41-1-.81a12.37,12.37,0,0,0-2-1.23,16.55,16.55,0,0,0-3.06-1.13,15.45,15.45,0,0,0-4-.49,19.21,19.21,0,0,0-7.09,1.51,20.08,20.08,0,0,0-6.88,4.67,26.3,26.3,0,0,0-5.21,8,28.22,28.22,0,0,0-2.09,11.33,20.36,20.36,0,0,0,.43,4.14,11.37,11.37,0,0,0,1.5,3.81,8.37,8.37,0,0,0,2.9,2.8,8.84,8.84,0,0,0,4.52,1.07,10,10,0,0,0,4.45-1.29,16.15,16.15,0,0,0,4.84-4,29.07,29.07,0,0,0,4.19-6.77,34,34,0,0,0,2.63-9.67,4,4,0,0,1,1.4-2.52,4.1,4.1,0,0,1,2.79-1,3.52,3.52,0,0,1,2.63,1.18,4.3,4.3,0,0,1,1.24,2.68q.1,2,.43,5.75a34.49,34.49,0,0,0,1.45,7.36,18,18,0,0,0,3.38,6.34,7.69,7.69,0,0,0,6.23,2.68,10.33,10.33,0,0,0,5.1-1.4,23.66,23.66,0,0,0,4.94-3.7,42.05,42.05,0,0,0,4.62-5.26q2.21-3,4-6t3.22-5.8q1.39-2.79,2.37-4.83a4.07,4.07,0,0,1,3.76-2.47,3.68,3.68,0,0,1,2.95,1.34,4.4,4.4,0,0,1,1.13,2.85A3.85,3.85,0,0,1,613.24,579.28Z" transform="translate(-195.04 -446.51)"/><path fill="#1d1d1d" stroke="#ffffff" d="M660.93,579.28q0,9.88-3.54,16.87a28.58,28.58,0,0,1-8.7,10.63h.43a23.64,23.64,0,0,0,11.54-2.85,37.23,37.23,0,0,0,9.4-7.3,59.08,59.08,0,0,0,7.52-9.94q3.33-5.48,5.91-10.63a4.13,4.13,0,0,1,1.56-1.83,4,4,0,0,1,2.2-.64,3.58,3.58,0,0,1,2.9,1.29,4.25,4.25,0,0,1,1.07,2.79,4,4,0,0,1-.32,1.61,107.92,107.92,0,0,1-6.66,12.52,59.29,59.29,0,0,1-9,11.33,44.63,44.63,0,0,1-11.6,8.22,32,32,0,0,1-14.29,3.17,35.08,35.08,0,0,1-11.06-1.78,25.51,25.51,0,0,1-9.46-5.53,16.27,16.27,0,0,1-2.58-2.52,18.21,18.21,0,0,1-1.71-2.53.58.58,0,0,1-.22-.43,3.59,3.59,0,0,1-.64-2,4,4,0,0,1,1-2.58.63.63,0,0,1,.22-.27.59.59,0,0,0,.21-.16,4,4,0,0,1,2.37-1.07h.32a1.83,1.83,0,0,1,.75.11.25.25,0,0,1,.16,0,.21.21,0,0,0,.16.05,1.74,1.74,0,0,1,.75.22.33.33,0,0,0,.22.11,5.74,5.74,0,0,1,1.61,1.61,13.6,13.6,0,0,0,1.72,2.36,10,10,0,0,0,2,1.56,5.14,5.14,0,0,0,2.69.7,10.42,10.42,0,0,0,5.37-1.61,16.44,16.44,0,0,0,4.83-4.62,25.59,25.59,0,0,0,3.49-7.31,31.77,31.77,0,0,0,1.35-9.56,23.55,23.55,0,0,0-.81-6.61,14.86,14.86,0,0,0-2-4.45,8.77,8.77,0,0,0-2.63-2.53,5.48,5.48,0,0,0-2.69-.8q-2.9,0-5.85,3a45.61,45.61,0,0,0-5.86,7.63q-2.89,4.62-5.75,10.21t-5.74,10.85q-.22,17.4-.59,33.19t-1.29,29.33q-.92,13.53-2.53,24.49a98.41,98.41,0,0,1-4.4,18.74q-2.79,7.78-6.88,12a13.42,13.42,0,0,1-10,4.19,14.14,14.14,0,0,1-4.19-.75,10,10,0,0,1-4.4-3.06,18.69,18.69,0,0,1-3.44-6.61,38.4,38.4,0,0,1-1.39-11.49,117,117,0,0,1,2.25-21.17,238.24,238.24,0,0,1,6.39-25.51q4.14-13.49,9.83-27.66t12.57-27.61q0-3.75,0-7.41c0-2.43.06-4.8.06-7.09a4.28,4.28,0,0,1-3.33,1.61,3.57,3.57,0,0,1-2.9-1.29,4.26,4.26,0,0,1-1.08-2.79,4.5,4.5,0,0,1,.33-1.61,78.11,78.11,0,0,0,4-11.23c.93-3.54,1.63-6.66,2.1-9.34a54.81,54.81,0,0,0,.8-6.39c.07-1.58.11-2.4.11-2.48a3.81,3.81,0,0,1,1.18-2.79,4.08,4.08,0,0,1,5.69-.05,3.76,3.76,0,0,1,1.19,2.84v33q2.46-4.19,4.94-8.27a55.24,55.24,0,0,1,5.21-7.3,25.49,25.49,0,0,1,5.9-5.21,13,13,0,0,1,7-2,13.14,13.14,0,0,1,6.66,1.72,16.21,16.21,0,0,1,5.16,4.73,22.14,22.14,0,0,1,3.27,7.14A33.24,33.24,0,0,1,660.93,579.28Zm-47.69,34.48q-5.26,11.82-9.51,23.74t-7.2,23q-3,11.07-4.56,20.73a104.32,104.32,0,0,0-1.61,17c0,1.21.07,2.54.21,4a16.91,16.91,0,0,0,.86,4,8.49,8.49,0,0,0,1.83,3.06,4.1,4.1,0,0,0,3.11,1.23c2.36,0,4.41-1.48,6.12-4.45a44.85,44.85,0,0,0,4.35-12,159.89,159.89,0,0,0,3-17.4q1.19-9.82,1.88-20.57t1-21.65Q613,623.44,613.24,613.76Z" transform="translate(-195.04 -446.51)"/><path fill="#1d1d1d" stroke="#ffffff" d="M770.5,501.72a3.42,3.42,0,0,1-1.18,2.74,4.3,4.3,0,0,1-2.9,1H712v1.18a109.13,109.13,0,0,1-1,14q-1,7.41-2.63,14.77t-3.76,14.34q-2.1,7-4.3,12.89T696,572.89a36.67,36.67,0,0,1-3.87,6.5,63.8,63.8,0,0,0,3.33,9.18,38.89,38.89,0,0,0,4.35,7.42,21.56,21.56,0,0,0,5.21,5,10.8,10.8,0,0,0,6,1.83,11.52,11.52,0,0,0,7.47-3.17,43.43,43.43,0,0,0,6.87-7.52,79,79,0,0,0,5.59-8.81,73.47,73.47,0,0,0,3.49-7.14,3.8,3.8,0,0,1,3.76-2.58,3.74,3.74,0,0,1,3,1.29,4.17,4.17,0,0,1,1.13,2.79,3.85,3.85,0,0,1-.32,1.5c-.22.51-.74,1.65-1.56,3.44s-1.9,3.87-3.22,6.23-2.87,4.85-4.62,7.47a46.54,46.54,0,0,1-5.91,7.14,34.23,34.23,0,0,1-7,5.37,15.77,15.77,0,0,1-8,2.15,20.5,20.5,0,0,1-13.32-4.83,38.66,38.66,0,0,1-10-13.54A81.65,81.65,0,0,1,682,572a146.81,146.81,0,0,1-2.15-26.11c0-2.36,0-5.13.11-8.32s.21-6.55.43-10.1.53-7.2,1-11,1-7.43,1.72-11H644.5a4.26,4.26,0,0,1-2.9-1,3.75,3.75,0,0,1,0-5.48,4.26,4.26,0,0,1,2.9-1h40.39a48.54,48.54,0,0,1,2.52-7.09,26.24,26.24,0,0,1,3.33-5.58,15,15,0,0,1,4.19-3.71,10,10,0,0,1,5.1-1.34,8.22,8.22,0,0,1,4.68,1.34,11.38,11.38,0,0,1,3.38,3.71,20.89,20.89,0,0,1,2.2,5.58,53.88,53.88,0,0,1,1.24,7.09h54.89a4.3,4.3,0,0,1,2.9,1A3.45,3.45,0,0,1,770.5,501.72Zm-80.89,66.93a141.69,141.69,0,0,0,5.86-15.31q2.63-8.22,4.51-16.6t2.9-16.43a118.79,118.79,0,0,0,1-14.83H691.22A133,133,0,0,0,688.81,522q-.91,9.82-.92,23.9,0,7.85.43,13.16A85.22,85.22,0,0,0,689.61,568.65Zm10-80.36q-1,0-2.79,2.1c-1.22,1.4-2.43,3.92-3.65,7.57h10.31a29.57,29.57,0,0,0-1.56-7.09Q700.89,488.29,699.6,488.29Z" transform="translate(-195.04 -446.51)"/><path fill="#1d1d1d" stroke="#ffffff" d="M770.5,597.22a32.45,32.45,0,0,1-8.75,9.67,17.28,17.28,0,0,1-10,3.54,17.1,17.1,0,0,1-7.3-1.5,16.63,16.63,0,0,1-5.59-4.24,18.9,18.9,0,0,1-3.6-6.61,28.66,28.66,0,0,1-1.23-8.7,55,55,0,0,1,1.45-13.32,61.69,61.69,0,0,1,3.17-9.72,42.11,42.11,0,0,1,4.72-8,3.28,3.28,0,0,1,1.35-1,4.31,4.31,0,0,1,1.66-.33,3.7,3.7,0,0,1,2.85,1.24,4.1,4.1,0,0,1,1.13,2.85,3.32,3.32,0,0,1-.27,1.29c-.18.43-.38.86-.59,1.29-.36.64-.93,1.62-1.72,2.95a38.14,38.14,0,0,0-2.47,5.21,49.92,49.92,0,0,0-2.26,7.57,46.42,46.42,0,0,0-1,9.94q0,6.35,2.52,9.61a8.47,8.47,0,0,0,7.14,3.28,10.31,10.31,0,0,0,4.46-1.24,17.26,17.26,0,0,0,4.94-3.81,24.47,24.47,0,0,0,4.25-6.55,29.58,29.58,0,0,0,2.36-9.35l1.61-18.47a4.27,4.27,0,0,1,1.4-2.69,4,4,0,0,1,2.79-1.07,3.5,3.5,0,0,1,2.9,1.34,4.81,4.81,0,0,1,1.07,3.06l-1.39,17.83a30.71,30.71,0,0,0,.16,5.91,33.44,33.44,0,0,0,1.56,7.2,16.24,16.24,0,0,0,3.54,6.07,8.15,8.15,0,0,0,6.23,2.52,11.38,11.38,0,0,0,5.48-1.45,24.32,24.32,0,0,0,5.16-3.81,37,37,0,0,0,4.56-5.32q2.1-3,3.87-6c1.18-2,2.2-3.92,3.06-5.75s1.58-3.38,2.15-4.67a4.28,4.28,0,0,1,1.5-1.83,3.8,3.8,0,0,1,2.15-.64,3.71,3.71,0,0,1,3,1.29,4.3,4.3,0,0,1,1.07,2.79,4,4,0,0,1-.32,1.61c-.29.58-.84,1.77-1.66,3.6s-1.9,3.9-3.23,6.23a81,81,0,0,1-4.78,7.36,51.1,51.1,0,0,1-6.23,7.14,32.27,32.27,0,0,1-7.46,5.37,18.46,18.46,0,0,1-8.65,2.1,15.59,15.59,0,0,1-10.53-3.6A21.4,21.4,0,0,1,770.5,597.22Z" transform="translate(-195.04 -446.51)"/><path fill="#1d1d1d" stroke="#ffffff" d="M823.14,565.1a54.89,54.89,0,0,1-1.08,5.43c-.43,1.68-.84,3.15-1.23,4.4s-.74,2.28-1,3.06a7.3,7.3,0,0,1-.54,1.29,3.8,3.8,0,0,1-3.76,2.47,4.13,4.13,0,0,1-2.79-1.13,3.61,3.61,0,0,1-1.29-2.84,1.81,1.81,0,0,1,.21-1,9,9,0,0,0,.65-1.29,28.73,28.73,0,0,0,1.07-3.22c.43-1.51,1-3.83,1.61-7-1.21,0-2.47,0-3.76-.11a11.65,11.65,0,0,1-3.59-.75,5.75,5.75,0,0,1-3.82-5.91,17,17,0,0,1,1-4.94,33.58,33.58,0,0,1,2.74-6.13,26,26,0,0,1,3.87-5.21,6.15,6.15,0,0,1,4.3-2.2,5,5,0,0,1,4,1.83,12.91,12.91,0,0,1,2.42,4.46,30.51,30.51,0,0,1,1.24,5.53,40,40,0,0,1,.37,5.05q1.83,0,3.6-.06c1.18,0,2.31,0,3.39,0q6.12,0,9.34,2.69t3.22,8.8a42.26,42.26,0,0,1-.32,5.16c-.21,1.79-.47,3.64-.75,5.53s-.54,3.78-.75,5.64a46.76,46.76,0,0,0-.32,5.48,16.33,16.33,0,0,0,1.07,6.39,11.42,11.42,0,0,0,2.69,4,9.24,9.24,0,0,0,3.43,2.1,11.05,11.05,0,0,0,3.33.59,14.44,14.44,0,0,0,8.7-3,41.08,41.08,0,0,0,7.52-7.25,70.69,70.69,0,0,0,6.18-9q2.75-4.72,4.57-8.27a3.76,3.76,0,0,1,1.5-1.51,4.19,4.19,0,0,1,2-.53,3.79,3.79,0,0,1,3,1.23,4.1,4.1,0,0,1,1.07,2.74,4.18,4.18,0,0,1-.43,1.93q-2.48,4.41-5.74,9.94a72.19,72.19,0,0,1-7.47,10.37,43.23,43.23,0,0,1-9.4,8.16,20.82,20.82,0,0,1-11.44,3.33,18.51,18.51,0,0,1-7.3-1.45,17,17,0,0,1-6-4.19,20.35,20.35,0,0,1-4-6.77,25.6,25.6,0,0,1-1.51-9.07,53.55,53.55,0,0,1,1.08-10.69,51.79,51.79,0,0,0,1.07-10.15,4.56,4.56,0,0,0-.91-3.07c-.61-.68-2-1-4-1H827C825.77,565,824.5,565,823.14,565.1Zm-7.2-8c0-.5,0-1.16-.05-2s-.11-1.63-.22-2.42a11.68,11.68,0,0,0-.43-2c-.18-.58-.37-.86-.59-.86s-.48.27-.8.8a18.83,18.83,0,0,0-1,1.94,19.53,19.53,0,0,0-1,2.41c-.29.86-.5,1.58-.65,2.15Z" transform="translate(-195.04 -446.51)"/><path fill="#1d1d1d" stroke="#ffffff" d="M891.46,597.44a16.72,16.72,0,0,0,5.8,5,20.15,20.15,0,0,0,18.26-.64,31.78,31.78,0,0,0,7.84-6.61,52.29,52.29,0,0,0,6.34-9.13q2.79-5.06,5-10.1a3.88,3.88,0,0,1,1.5-1.77,4.09,4.09,0,0,1,2.15-.59,3.76,3.76,0,0,1,3,1.29,4.16,4.16,0,0,1,1.12,2.79,3.42,3.42,0,0,1-.1.91,5.12,5.12,0,0,1-.33.81q-7.41,16.33-16.16,24.6t-19.82,8.48a25,25,0,0,1-20.73-9.82,30,30,0,0,1-5-9.83,38.89,38.89,0,0,1-1.61-11,35.91,35.91,0,0,1,1.35-10.1,25.38,25.38,0,0,1,3.86-8,18.53,18.53,0,0,1,6-5.38,15.56,15.56,0,0,1,7.68-1.93,12.47,12.47,0,0,1,4.89,1,14.1,14.1,0,0,1,4.35,2.9,14.44,14.44,0,0,1,3.11,4.57,15,15,0,0,1,1.18,6.12,22.66,22.66,0,0,1-1.5,8.27,27.58,27.58,0,0,1-4.14,7.2,35.12,35.12,0,0,1-6.28,6.12A46.16,46.16,0,0,1,891.46,597.44Zm-3.22-7a26.31,26.31,0,0,0,6.07-3.54,25.45,25.45,0,0,0,4.67-4.73,22,22,0,0,0,3-5.42,16.34,16.34,0,0,0,1.07-5.75,6.78,6.78,0,0,0-1.61-4.89,5.07,5.07,0,0,0-3.76-1.66,7.7,7.7,0,0,0-4.94,1.61,12.14,12.14,0,0,0-3.33,4.19,21.5,21.5,0,0,0-1.88,5.74,33.79,33.79,0,0,0-.59,6.29,23.7,23.7,0,0,0,.37,4.08C887.57,587.8,887.88,589.16,888.24,590.45Z" transform="translate(-195.04 -446.51)"/><path fill="#1d1d1d" stroke="#ffffff" d="M956.23,606.14a5.8,5.8,0,1,1-11.6,0,5.49,5.49,0,0,1,1.67-4,6,6,0,0,1,8.27,0A5.48,5.48,0,0,1,956.23,606.14Z" transform="translate(-195.04 -446.51)"/></svg>